<svg width="0" height="0" class="hidden">
  <symbol xmlns="http://www.w3.org/2000/svg" fill="currentColor" viewBox="0 0 16 16" id="arrows-fullscreen">
    <path fill-rule="evenodd" d="M5.828 10.172a.5.5 0 00-.707 0l-4.096 4.096V11.5a.5.5 0 00-1 0v3.975a.5.5 0 00.5.5H4.5a.5.5 0 000-1H1.732l4.096-4.096a.5.5 0 000-.707zm4.344 0a.5.5 0 01.707 0l4.096 4.096V11.5a.5.5 0 111 0v3.975a.5.5 0 01-.5.5H11.5a.5.5 0 010-1h2.768l-4.096-4.096a.5.5 0 010-.707zm0-4.344a.5.5 0 00.707 0l4.096-4.096V4.5a.5.5 0 101 0V.525a.5.5 0 00-.5-.5H11.5a.5.5 0 000 1h2.768l-4.096 4.096a.5.5 0 000 .707zm-4.344 0a.5.5 0 01-.707 0L1.025 1.732V4.5a.5.5 0 01-1 0V.525a.5.5 0 01.5-.5H4.5a.5.5 0 010 1H1.732l4.096 4.096a.5.5 0 010 .707z"></path>
  </symbol>
  <symbol xmlns="http://www.w3.org/2000/svg" fill="currentColor" viewBox="0 0 16 16" id="x">
    <path d="M4.646 4.646a.5.5 0 01.708 0L8 7.293l2.646-2.647a.5.5 0 01.708.708L8.707 8l2.647 2.646a.5.5 0 01-.708.708L8 8.707l-2.646 2.647a.5.5 0 01-.708-.708L7.293 8 4.646 5.354a.5.5 0 010-.708z"></path>
  </symbol>
  <symbol xmlns="http://www.w3.org/2000/svg" fill="currentColor" viewBox="0 0 16 16" id="list">
    <path fill-rule="evenodd" d="M2.5 11.5A.5.5 0 013 11h10a.5.5 0 010 1H3a.5.5 0 01-.5-.5zm0-4A.5.5 0 013 7h10a.5.5 0 010 1H3a.5.5 0 01-.5-.5zm0-4A.5.5 0 013 3h10a.5.5 0 010 1H3a.5.5 0 01-.5-.5z"></path>
  </symbol>
  <symbol xmlns="http://www.w3.org/2000/svg" fill="currentColor" viewBox="0 0 16 16" id="brush">
    <path d="M15.825.12a.5.5 0 01.132.584c-1.53 3.43-4.743 8.17-7.095 10.64a6.067 6.067 0 01-2.373 1.534c-.018.227-.06.538-.16.868-.201.659-.667 1.479-1.708 1.74a8.117 8.117 0 01-3.078.132 3.658 3.658 0 01-.563-.135 1.382 1.382 0 01-.465-.247.714.714 0 01-.204-.288.622.622 0 01.004-.443c.095-.245.316-.38.461-.452.393-.197.625-.453.867-.826.094-.144.184-.297.287-.472l.117-.198c.151-.255.326-.54.546-.848.528-.739 1.2-.925 1.746-.896.126.007.243.025.348.048.062-.172.142-.38.238-.608.261-.619.658-1.419 1.187-2.069 2.175-2.67 6.18-6.206 9.117-8.104a.5.5 0 01.596.04zM4.705 11.912a1.23 1.23 0 00-.419-.1c-.247-.013-.574.05-.88.479a11.01 11.01 0 00-.5.777l-.104.177c-.107.181-.213.362-.32.528-.206.317-.438.61-.76.861a7.127 7.127 0 002.657-.12c.559-.139.843-.569.993-1.06a3.121 3.121 0 00.126-.75l-.793-.792zm1.44.026c.12-.04.277-.1.458-.183a5.068 5.068 0 001.535-1.1c1.9-1.996 4.412-5.57 6.052-8.631-2.591 1.927-5.566 4.66-7.302 6.792-.442.543-.796 1.243-1.042 1.826a11.507 11.507 0 00-.276.721l.575.575zm-4.973 3.04l.007-.005a.031.031 0 01-.007.004zm3.582-3.043l.002.001h-.002z"></path>
  </symbol>
  <symbol xmlns="http://www.w3.org/2000/svg" fill="currentColor" viewBox="0 0 16 16" id="camera-reels-fill">
    <path d="M6 3a3 3 0 11-6 0 3 3 0 016 0z"></path>
    <path d="M9 6a3 3 0 110-6 3 3 0 010 6z"></path>
    <path d="M9 6h.5a2 2 0 011.983 1.738l3.11-1.382A1 1 0 0116 7.269v7.462a1 1 0 01-1.406.913l-3.111-1.382A2 2 0 019.5 16H2a2 2 0 01-2-2V8a2 2 0 012-2h7z"></path>
  </symbol>
  <symbol xmlns="http://www.w3.org/2000/svg" fill="currentColor" viewBox="0 0 16 16" id="camera-fill">
    <path d="M10.5 8.5a2.5 2.5 0 11-5 0 2.5 2.5 0 015 0z"></path>
    <path d="M2 4a2 2 0 00-2 2v6a2 2 0 002 2h12a2 2 0 002-2V6a2 2 0 00-2-2h-1.172a2 2 0 01-1.414-.586l-.828-.828A2 2 0 009.172 2H6.828a2 2 0 00-1.414.586l-.828.828A2 2 0 013.172 4H2zm.5 2a.5.5 0 110-1 .5.5 0 010 1zm9 2.5a3.5 3.5 0 11-7 0 3.5 3.5 0 017 0z"></path>
  </symbol>
  <symbol xmlns="http://www.w3.org/2000/svg" fill="currentColor" viewBox="0 0 16 16" id="camera-reels">
    <path d="M6 3a3 3 0 11-6 0 3 3 0 016 0zM1 3a2 2 0 104 0 2 2 0 00-4 0z"></path>
    <path d="M9 6h.5a2 2 0 011.983 1.738l3.11-1.382A1 1 0 0116 7.269v7.462a1 1 0 01-1.406.913l-3.111-1.382A2 2 0 019.5 16H2a2 2 0 01-2-2V8a2 2 0 012-2h7zm6 8.73V7.27l-3.5 1.555v4.35l3.5 1.556zM1 8v6a1 1 0 001 1h7.5a1 1 0 001-1V8a1 1 0 00-1-1H2a1 1 0 00-1 1z"></path>
    <path d="M9 6a3 3 0 100-6 3 3 0 000 6zM7 3a2 2 0 114 0 2 2 0 01-4 0z"></path>
  </symbol>
  <symbol xmlns="http://www.w3.org/2000/svg" fill="currentColor" viewBox="0 0 16 16" id="camera">
    <path d="M15 12a1 1 0 01-1 1H2a1 1 0 01-1-1V6a1 1 0 011-1h1.172a3 3 0 002.12-.879l.83-.828A1 1 0 016.827 3h2.344a1 1 0 01.707.293l.828.828A3 3 0 0012.828 5H14a1 1 0 011 1v6zM2 4a2 2 0 00-2 2v6a2 2 0 002 2h12a2 2 0 002-2V6a2 2 0 00-2-2h-1.172a2 2 0 01-1.414-.586l-.828-.828A2 2 0 009.172 2H6.828a2 2 0 00-1.414.586l-.828.828A2 2 0 013.172 4H2z"></path>
    <path d="M8 11a2.5 2.5 0 110-5 2.5 2.5 0 010 5zm0 1a3.5 3.5 0 100-7 3.5 3.5 0 000 7zM3 6.5a.5.5 0 11-1 0 .5.5 0 011 0z"></path>
  </symbol>
  <symbol xmlns="http://www.w3.org/2000/svg" fill="currentColor" viewBox="0 0 16 16" id="chevron-down">
    <path fill-rule="evenodd" d="M1.646 4.646a.5.5 0 01.708 0L8 10.293l5.646-5.647a.5.5 0 01.708.708l-6 6a.5.5 0 01-.708 0l-6-6a.5.5 0 010-.708z"></path>
  </symbol>
  <symbol xmlns="http://www.w3.org/2000/svg" fill="currentColor" viewBox="0 0 16 16" id="arrow-right-short">
    <path fill-rule="evenodd" d="M4 8a.5.5 0 01.5-.5h5.793L8.146 5.354a.5.5 0 11.708-.708l3 3a.5.5 0 010 .708l-3 3a.5.5 0 01-.708-.708L10.293 8.5H4.5A.5.5 0 014 8z"></path>
  </symbol>
  <symbol xmlns="http://www.w3.org/2000/svg" fill="currentColor" viewBox="0 0 16 16" id="grid-3x3-gap">
    <path d="M4 2v2H2V2h2zm1 12v-2a1 1 0 00-1-1H2a1 1 0 00-1 1v2a1 1 0 001 1h2a1 1 0 001-1zm0-5V7a1 1 0 00-1-1H2a1 1 0 00-1 1v2a1 1 0 001 1h2a1 1 0 001-1zm0-5V2a1 1 0 00-1-1H2a1 1 0 00-1 1v2a1 1 0 001 1h2a1 1 0 001-1zm5 10v-2a1 1 0 00-1-1H7a1 1 0 00-1 1v2a1 1 0 001 1h2a1 1 0 001-1zm0-5V7a1 1 0 00-1-1H7a1 1 0 00-1 1v2a1 1 0 001 1h2a1 1 0 001-1zm0-5V2a1 1 0 00-1-1H7a1 1 0 00-1 1v2a1 1 0 001 1h2a1 1 0 001-1zM9 2v2H7V2h2zm5 0v2h-2V2h2zM4 7v2H2V7h2zm5 0v2H7V7h2zm5 0h-2v2h2V7zM4 12v2H2v-2h2zm5 0v2H7v-2h2zm5 0v2h-2v-2h2zM12 1a1 1 0 00-1 1v2a1 1 0 001 1h2a1 1 0 001-1V2a1 1 0 00-1-1h-2zm-1 6a1 1 0 011-1h2a1 1 0 011 1v2a1 1 0 01-1 1h-2a1 1 0 01-1-1V7zm1 4a1 1 0 00-1 1v2a1 1 0 001 1h2a1 1 0 001-1v-2a1 1 0 00-1-1h-2z"></path>
  </symbol>
  <symbol xmlns="http://www.w3.org/2000/svg" fill="currentColor" viewBox="0 0 16 16" id="grid-3x3-gap-fill">
    <path d="M1 2a1 1 0 011-1h2a1 1 0 011 1v2a1 1 0 01-1 1H2a1 1 0 01-1-1V2zm5 0a1 1 0 011-1h2a1 1 0 011 1v2a1 1 0 01-1 1H7a1 1 0 01-1-1V2zm5 0a1 1 0 011-1h2a1 1 0 011 1v2a1 1 0 01-1 1h-2a1 1 0 01-1-1V2zM1 7a1 1 0 011-1h2a1 1 0 011 1v2a1 1 0 01-1 1H2a1 1 0 01-1-1V7zm5 0a1 1 0 011-1h2a1 1 0 011 1v2a1 1 0 01-1 1H7a1 1 0 01-1-1V7zm5 0a1 1 0 011-1h2a1 1 0 011 1v2a1 1 0 01-1 1h-2a1 1 0 01-1-1V7zM1 12a1 1 0 011-1h2a1 1 0 011 1v2a1 1 0 01-1 1H2a1 1 0 01-1-1v-2zm5 0a1 1 0 011-1h2a1 1 0 011 1v2a1 1 0 01-1 1H7a1 1 0 01-1-1v-2zm5 0a1 1 0 011-1h2a1 1 0 011 1v2a1 1 0 01-1 1h-2a1 1 0 01-1-1v-2z"></path>
  </symbol>

  <symbol xmlns="http://www.w3.org/2000/svg" viewBox="0 0 428.76 113.83" id="logo">
    <title>Asset 1</title><text transform="translate(140.85 42.96)" font-family="MyriadPro-Regular,Myriad Pro" font-size="47.15">Ha<tspan x="53.46" y="0" letter-spacing="0">r</tspan>
      <tspan x="69.07" y="0">ish Namani</tspan>
    </text><text transform="translate(141.05 102.02)" font-size="47.22" font-family="MyriadPro-Regular,Myriad Pro">
      <tspan>P</tspan>
      <tspan x="24.89" y="0">ho</tspan>
      <tspan x="77.02" y="0">t</tspan>
      <tspan x="92.36" y="0">o</tspan>
      <tspan x="118.29" y="0">g</tspan>
      <tspan x="144.4" y="0">r</tspan>
      <tspan x="159.6" y="0">ap</tspan>
      <tspan x="209.23" y="0" letter-spacing="-.01em">h</tspan>
      <tspan x="234.83" y="0">y</tspan>
    </text>
    <rect x="4.5" y="4.5" width="103" height="103" rx="20.83" ry="20.83" stroke-width="9" fill="none" stroke="#000" stroke-miterlimit="10"></rect>
    <circle cx="56.4" cy="55.6" r="24.35" stroke-width="10" fill="none" stroke="#000" stroke-miterlimit="10"></circle>
    <circle cx="87.54" cy="22.07" r="5.59"></circle>
  </symbol>


  <symbol xmlns="http://www.w3.org/2000/svg" fill="currentColor" viewBox="0 0 16 16" id="instagram">
    <path d="M8 0C5.829 0 5.556.01 4.703.048 3.85.088 3.269.222 2.76.42a3.917 3.917 0 00-1.417.923A3.927 3.927 0 00.42 2.76C.222 3.268.087 3.85.048 4.7.01 5.555 0 5.827 0 8.001c0 2.172.01 2.444.048 3.297.04.852.174 1.433.372 1.942.205.526.478.972.923 1.417.444.445.89.719 1.416.923.51.198 1.09.333 1.942.372C5.555 15.99 5.827 16 8 16s2.444-.01 3.298-.048c.851-.04 1.434-.174 1.943-.372a3.916 3.916 0 001.416-.923c.445-.445.718-.891.923-1.417.197-.509.332-1.09.372-1.942C15.99 10.445 16 10.173 16 8s-.01-2.445-.048-3.299c-.04-.851-.175-1.433-.372-1.941a3.926 3.926 0 00-.923-1.417A3.911 3.911 0 0013.24.42c-.51-.198-1.092-.333-1.943-.372C10.443.01 10.172 0 7.998 0h.003zm-.717 1.442h.718c2.136 0 2.389.007 3.232.046.78.035 1.204.166 1.486.275.373.145.64.319.92.599.28.28.453.546.598.92.11.281.24.705.275 1.485.039.843.047 1.096.047 3.231s-.008 2.389-.047 3.232c-.035.78-.166 1.203-.275 1.485a2.47 2.47 0 01-.599.919c-.28.28-.546.453-.92.598-.28.11-.704.24-1.485.276-.843.038-1.096.047-3.232.047s-2.39-.009-3.233-.047c-.78-.036-1.203-.166-1.485-.276a2.478 2.478 0 01-.92-.598 2.48 2.48 0 01-.6-.92c-.109-.281-.24-.705-.275-1.485-.038-.843-.046-1.096-.046-3.233 0-2.136.008-2.388.046-3.231.036-.78.166-1.204.276-1.486.145-.373.319-.64.599-.92.28-.28.546-.453.92-.598.282-.11.705-.24 1.485-.276.738-.034 1.024-.044 2.515-.045v.002zm4.988 1.328a.96.96 0 100 1.92.96.96 0 000-1.92zm-4.27 1.122a4.109 4.109 0 100 8.217 4.109 4.109 0 000-8.217zm0 1.441a2.667 2.667 0 110 5.334 2.667 2.667 0 010-5.334z"></path>
  </symbol>
  <symbol xmlns="http://www.w3.org/2000/svg" fill="currentColor" viewBox="0 0 16 16" id="youtube">
    <path d="M8.051 1.999h.089c.822.003 4.987.033 6.11.335a2.01 2.01 0 011.415 1.42c.101.38.172.883.22 1.402l.01.104.022.26.008.104c.065.914.073 1.77.074 1.957v.075c-.001.194-.01 1.108-.082 2.06l-.008.105-.009.104c-.05.572-.124 1.14-.235 1.558a2.007 2.007 0 01-1.415 1.42c-1.16.312-5.569.334-6.18.335h-.142c-.309 0-1.587-.006-2.927-.052l-.17-.006-.087-.004-.171-.007-.171-.007c-1.11-.049-2.167-.128-2.654-.26a2.007 2.007 0 01-1.415-1.419c-.111-.417-.185-.986-.235-1.558L.09 9.82l-.008-.104A31.4 31.4 0 010 7.68v-.122C.002 7.343.01 6.6.064 5.78l.007-.103.003-.052.008-.104.022-.26.01-.104c.048-.519.119-1.023.22-1.402a2.007 2.007 0 011.415-1.42c.487-.13 1.544-.21 2.654-.26l.17-.007.172-.006.086-.003.171-.007A99.788 99.788 0 017.858 2h.193zM6.4 5.209v4.818l4.157-2.408L6.4 5.209z"></path>
  </symbol>
  <symbol xmlns="http://www.w3.org/2000/svg" fill="currentColor" viewBox="0 0 16 16" id="twitter">
    <path d="M5.026 15c6.038 0 9.341-5.003 9.341-9.334 0-.14 0-.282-.006-.422A6.685 6.685 0 0016 3.542a6.658 6.658 0 01-1.889.518 3.301 3.301 0 001.447-1.817 6.533 6.533 0 01-2.087.793A3.286 3.286 0 007.875 6.03a9.325 9.325 0 01-6.767-3.429 3.289 3.289 0 001.018 4.382A3.323 3.323 0 01.64 6.575v.045a3.288 3.288 0 002.632 3.218 3.203 3.203 0 01-.865.115 3.23 3.23 0 01-.614-.057 3.283 3.283 0 003.067 2.277A6.588 6.588 0 01.78 13.58a6.32 6.32 0 01-.78-.045A9.344 9.344 0 005.026 15z"></path>
  </symbol>
  <symbol xmlns="http://www.w3.org/2000/svg" fill="currentColor" viewBox="0 0 16 16" id="facebook">
    <path d="M16 8.049c0-4.446-3.582-8.05-8-8.05C3.58 0-.002 3.603-.002 8.05c0 4.017 2.926 7.347 6.75 7.951v-5.625h-2.03V8.05H6.75V6.275c0-2.017 1.195-3.131 3.022-3.131.876 0 1.791.157 1.791.157v1.98h-1.009c-.993 0-1.303.621-1.303 1.258v1.51h2.218l-.354 2.326H9.25V16c3.824-.604 6.75-3.934 6.75-7.951z"></path>
  </symbol>
  <symbol xmlns="http://www.w3.org/2000/svg" fill="currentColor" viewBox="0 0 16 16" id="whatsapp">
    <path d="M13.601 2.326A7.854 7.854 0 007.994 0C3.627 0 .068 3.558.064 7.926c0 1.399.366 2.76 1.057 3.965L0 16l4.204-1.102a7.933 7.933 0 003.79.965h.004c4.368 0 7.926-3.558 7.93-7.93A7.898 7.898 0 0013.6 2.326zM7.994 14.521a6.573 6.573 0 01-3.356-.92l-.24-.144-2.494.654.666-2.433-.156-.251a6.56 6.56 0 01-1.007-3.505c0-3.626 2.957-6.584 6.591-6.584a6.56 6.56 0 014.66 1.931 6.557 6.557 0 011.928 4.66c-.004 3.639-2.961 6.592-6.592 6.592zm3.615-4.934c-.197-.099-1.17-.578-1.353-.646-.182-.065-.315-.099-.445.099-.133.197-.513.646-.627.775-.114.133-.232.148-.43.05-.197-.1-.836-.308-1.592-.985-.59-.525-.985-1.175-1.103-1.372-.114-.198-.011-.304.088-.403.087-.088.197-.232.296-.346.1-.114.133-.198.198-.33.065-.134.034-.248-.015-.347-.05-.099-.445-1.076-.612-1.47-.16-.389-.323-.335-.445-.34-.114-.007-.247-.007-.38-.007a.729.729 0 00-.529.247c-.182.198-.691.677-.691 1.654 0 .977.71 1.916.81 2.049.098.133 1.394 2.132 3.383 2.992.47.205.84.326 1.129.418.475.152.904.129 1.246.08.38-.058 1.171-.48 1.338-.943.164-.464.164-.86.114-.943-.049-.084-.182-.133-.38-.232z"></path>
  </symbol>
  <symbol xmlns="http://www.w3.org/2000/svg" fill="currentColor" viewBox="0 0 16 16" id="arrow-up-circle-fill">
    <path d="M16 8A8 8 0 100 8a8 8 0 0016 0zm-7.5 3.5a.5.5 0 01-1 0V5.707L5.354 7.854a.5.5 0 11-.708-.708l3-3a.5.5 0 01.708 0l3 3a.5.5 0 01-.708.708L8.5 5.707V11.5z"></path>
  </symbol>

</svg>