<svg width="0" height="0" class="hidden">
  <symbol xmlns="http://www.w3.org/2000/svg" fill="currentColor" viewBox="0 0 16 16" id="arrows-fullscreen">
    <path fill-rule="evenodd" d="M5.828 10.172a.5.5 0 00-.707 0l-4.096 4.096V11.5a.5.5 0 00-1 0v3.975a.5.5 0 00.5.5H4.5a.5.5 0 000-1H1.732l4.096-4.096a.5.5 0 000-.707zm4.344 0a.5.5 0 01.707 0l4.096 4.096V11.5a.5.5 0 111 0v3.975a.5.5 0 01-.5.5H11.5a.5.5 0 010-1h2.768l-4.096-4.096a.5.5 0 010-.707zm0-4.344a.5.5 0 00.707 0l4.096-4.096V4.5a.5.5 0 101 0V.525a.5.5 0 00-.5-.5H11.5a.5.5 0 000 1h2.768l-4.096 4.096a.5.5 0 000 .707zm-4.344 0a.5.5 0 01-.707 0L1.025 1.732V4.5a.5.5 0 01-1 0V.525a.5.5 0 01.5-.5H4.5a.5.5 0 010 1H1.732l4.096 4.096a.5.5 0 010 .707z"></path>
  </symbol>
  <symbol xmlns="http://www.w3.org/2000/svg" fill="currentColor" viewBox="0 0 16 16" id="x">
    <path d="M4.646 4.646a.5.5 0 01.708 0L8 7.293l2.646-2.647a.5.5 0 01.708.708L8.707 8l2.647 2.646a.5.5 0 01-.708.708L8 8.707l-2.646 2.647a.5.5 0 01-.708-.708L7.293 8 4.646 5.354a.5.5 0 010-.708z"></path>
  </symbol>
  <symbol xmlns="http://www.w3.org/2000/svg" fill="currentColor" viewBox="0 0 16 16" id="list">
    <path fill-rule="evenodd" d="M2.5 11.5A.5.5 0 013 11h10a.5.5 0 010 1H3a.5.5 0 01-.5-.5zm0-4A.5.5 0 013 7h10a.5.5 0 010 1H3a.5.5 0 01-.5-.5zm0-4A.5.5 0 013 3h10a.5.5 0 010 1H3a.5.5 0 01-.5-.5z"></path>
  </symbol>
  <symbol xmlns="http://www.w3.org/2000/svg" fill="currentColor" viewBox="0 0 16 16" id="brush">
    <path d="M15.825.12a.5.5 0 01.132.584c-1.53 3.43-4.743 8.17-7.095 10.64a6.067 6.067 0 01-2.373 1.534c-.018.227-.06.538-.16.868-.201.659-.667 1.479-1.708 1.74a8.117 8.117 0 01-3.078.132 3.658 3.658 0 01-.563-.135 1.382 1.382 0 01-.465-.247.714.714 0 01-.204-.288.622.622 0 01.004-.443c.095-.245.316-.38.461-.452.393-.197.625-.453.867-.826.094-.144.184-.297.287-.472l.117-.198c.151-.255.326-.54.546-.848.528-.739 1.2-.925 1.746-.896.126.007.243.025.348.048.062-.172.142-.38.238-.608.261-.619.658-1.419 1.187-2.069 2.175-2.67 6.18-6.206 9.117-8.104a.5.5 0 01.596.04zM4.705 11.912a1.23 1.23 0 00-.419-.1c-.247-.013-.574.05-.88.479a11.01 11.01 0 00-.5.777l-.104.177c-.107.181-.213.362-.32.528-.206.317-.438.61-.76.861a7.127 7.127 0 002.657-.12c.559-.139.843-.569.993-1.06a3.121 3.121 0 00.126-.75l-.793-.792zm1.44.026c.12-.04.277-.1.458-.183a5.068 5.068 0 001.535-1.1c1.9-1.996 4.412-5.57 6.052-8.631-2.591 1.927-5.566 4.66-7.302 6.792-.442.543-.796 1.243-1.042 1.826a11.507 11.507 0 00-.276.721l.575.575zm-4.973 3.04l.007-.005a.031.031 0 01-.007.004zm3.582-3.043l.002.001h-.002z"></path>
  </symbol>
  <symbol xmlns="http://www.w3.org/2000/svg" fill="currentColor" viewBox="0 0 16 16" id="camera-reels-fill">
    <path d="M6 3a3 3 0 11-6 0 3 3 0 016 0z"></path>
    <path d="M9 6a3 3 0 110-6 3 3 0 010 6z"></path>
    <path d="M9 6h.5a2 2 0 011.983 1.738l3.11-1.382A1 1 0 0116 7.269v7.462a1 1 0 01-1.406.913l-3.111-1.382A2 2 0 019.5 16H2a2 2 0 01-2-2V8a2 2 0 012-2h7z"></path>
  </symbol>
  <symbol xmlns="http://www.w3.org/2000/svg" fill="currentColor" viewBox="0 0 16 16" id="camera-fill">
    <path d="M10.5 8.5a2.5 2.5 0 11-5 0 2.5 2.5 0 015 0z"></path>
    <path d="M2 4a2 2 0 00-2 2v6a2 2 0 002 2h12a2 2 0 002-2V6a2 2 0 00-2-2h-1.172a2 2 0 01-1.414-.586l-.828-.828A2 2 0 009.172 2H6.828a2 2 0 00-1.414.586l-.828.828A2 2 0 013.172 4H2zm.5 2a.5.5 0 110-1 .5.5 0 010 1zm9 2.5a3.5 3.5 0 11-7 0 3.5 3.5 0 017 0z"></path>
  </symbol>
  <symbol xmlns="http://www.w3.org/2000/svg" fill="currentColor" viewBox="0 0 16 16" id="camera-reels">
    <path d="M6 3a3 3 0 11-6 0 3 3 0 016 0zM1 3a2 2 0 104 0 2 2 0 00-4 0z"></path>
    <path d="M9 6h.5a2 2 0 011.983 1.738l3.11-1.382A1 1 0 0116 7.269v7.462a1 1 0 01-1.406.913l-3.111-1.382A2 2 0 019.5 16H2a2 2 0 01-2-2V8a2 2 0 012-2h7zm6 8.73V7.27l-3.5 1.555v4.35l3.5 1.556zM1 8v6a1 1 0 001 1h7.5a1 1 0 001-1V8a1 1 0 00-1-1H2a1 1 0 00-1 1z"></path>
    <path d="M9 6a3 3 0 100-6 3 3 0 000 6zM7 3a2 2 0 114 0 2 2 0 01-4 0z"></path>
  </symbol>
  <symbol xmlns="http://www.w3.org/2000/svg" fill="currentColor" viewBox="0 0 16 16" id="camera">
    <path d="M15 12a1 1 0 01-1 1H2a1 1 0 01-1-1V6a1 1 0 011-1h1.172a3 3 0 002.12-.879l.83-.828A1 1 0 016.827 3h2.344a1 1 0 01.707.293l.828.828A3 3 0 0012.828 5H14a1 1 0 011 1v6zM2 4a2 2 0 00-2 2v6a2 2 0 002 2h12a2 2 0 002-2V6a2 2 0 00-2-2h-1.172a2 2 0 01-1.414-.586l-.828-.828A2 2 0 009.172 2H6.828a2 2 0 00-1.414.586l-.828.828A2 2 0 013.172 4H2z"></path>
    <path d="M8 11a2.5 2.5 0 110-5 2.5 2.5 0 010 5zm0 1a3.5 3.5 0 100-7 3.5 3.5 0 000 7zM3 6.5a.5.5 0 11-1 0 .5.5 0 011 0z"></path>
  </symbol>
  <symbol xmlns="http://www.w3.org/2000/svg" fill="currentColor" viewBox="0 0 16 16" id="chevron-down">
    <path fill-rule="evenodd" d="M1.646 4.646a.5.5 0 01.708 0L8 10.293l5.646-5.647a.5.5 0 01.708.708l-6 6a.5.5 0 01-.708 0l-6-6a.5.5 0 010-.708z"></path>
  </symbol>
  <symbol xmlns="http://www.w3.org/2000/svg" fill="currentColor" viewBox="0 0 16 16" id="arrow-right-short">
    <path fill-rule="evenodd" d="M4 8a.5.5 0 01.5-.5h5.793L8.146 5.354a.5.5 0 11.708-.708l3 3a.5.5 0 010 .708l-3 3a.5.5 0 01-.708-.708L10.293 8.5H4.5A.5.5 0 014 8z"></path>
  </symbol>
  <symbol xmlns="http://www.w3.org/2000/svg" fill="currentColor" viewBox="0 0 16 16" id="grid-3x3-gap">
    <path d="M4 2v2H2V2h2zm1 12v-2a1 1 0 00-1-1H2a1 1 0 00-1 1v2a1 1 0 001 1h2a1 1 0 001-1zm0-5V7a1 1 0 00-1-1H2a1 1 0 00-1 1v2a1 1 0 001 1h2a1 1 0 001-1zm0-5V2a1 1 0 00-1-1H2a1 1 0 00-1 1v2a1 1 0 001 1h2a1 1 0 001-1zm5 10v-2a1 1 0 00-1-1H7a1 1 0 00-1 1v2a1 1 0 001 1h2a1 1 0 001-1zm0-5V7a1 1 0 00-1-1H7a1 1 0 00-1 1v2a1 1 0 001 1h2a1 1 0 001-1zm0-5V2a1 1 0 00-1-1H7a1 1 0 00-1 1v2a1 1 0 001 1h2a1 1 0 001-1zM9 2v2H7V2h2zm5 0v2h-2V2h2zM4 7v2H2V7h2zm5 0v2H7V7h2zm5 0h-2v2h2V7zM4 12v2H2v-2h2zm5 0v2H7v-2h2zm5 0v2h-2v-2h2zM12 1a1 1 0 00-1 1v2a1 1 0 001 1h2a1 1 0 001-1V2a1 1 0 00-1-1h-2zm-1 6a1 1 0 011-1h2a1 1 0 011 1v2a1 1 0 01-1 1h-2a1 1 0 01-1-1V7zm1 4a1 1 0 00-1 1v2a1 1 0 001 1h2a1 1 0 001-1v-2a1 1 0 00-1-1h-2z"></path>
  </symbol>
  <symbol xmlns="http://www.w3.org/2000/svg" fill="currentColor" viewBox="0 0 16 16" id="grid-3x3-gap-fill">
    <path d="M1 2a1 1 0 011-1h2a1 1 0 011 1v2a1 1 0 01-1 1H2a1 1 0 01-1-1V2zm5 0a1 1 0 011-1h2a1 1 0 011 1v2a1 1 0 01-1 1H7a1 1 0 01-1-1V2zm5 0a1 1 0 011-1h2a1 1 0 011 1v2a1 1 0 01-1 1h-2a1 1 0 01-1-1V2zM1 7a1 1 0 011-1h2a1 1 0 011 1v2a1 1 0 01-1 1H2a1 1 0 01-1-1V7zm5 0a1 1 0 011-1h2a1 1 0 011 1v2a1 1 0 01-1 1H7a1 1 0 01-1-1V7zm5 0a1 1 0 011-1h2a1 1 0 011 1v2a1 1 0 01-1 1h-2a1 1 0 01-1-1V7zM1 12a1 1 0 011-1h2a1 1 0 011 1v2a1 1 0 01-1 1H2a1 1 0 01-1-1v-2zm5 0a1 1 0 011-1h2a1 1 0 011 1v2a1 1 0 01-1 1H7a1 1 0 01-1-1v-2zm5 0a1 1 0 011-1h2a1 1 0 011 1v2a1 1 0 01-1 1h-2a1 1 0 01-1-1v-2z"></path>
  </symbol>
</svg>